<svg xmlns="http://www.w3.org/2000/svg" width="1600" height="900" viewBox="0 0 1600 900" fill="none"><defs>
  <radialGradient id="lampPool" cx="50%" cy="50%" r="50%"><stop offset="0%" stop-color="#FFB347" stop-opacity="0.20"/><stop offset="70%" stop-color="#FFB347" stop-opacity="0"/></radialGradient>
  <radialGradient id="copRed" cx="50%" cy="50%" r="50%"><stop offset="0%" stop-color="#FF3B3B" stop-opacity="0.45"/><stop offset="60%" stop-color="#FF3B3B" stop-opacity="0"/></radialGradient>
  <radialGradient id="copBlue" cx="50%" cy="50%" r="50%"><stop offset="0%" stop-color="#3B82FF" stop-opacity="0.45"/><stop offset="60%" stop-color="#3B82FF" stop-opacity="0"/></radialGradient>
  <radialGradient id="tealGlow" cx="50%" cy="50%" r="50%"><stop offset="0%" stop-color="#00E5C7" stop-opacity="0.35"/><stop offset="70%" stop-color="#00E5C7" stop-opacity="0"/></radialGradient>
  <radialGradient id="goldGlow" cx="50%" cy="50%" r="50%"><stop offset="0%" stop-color="#FFD60A" stop-opacity="0.5"/><stop offset="70%" stop-color="#FFD60A" stop-opacity="0"/></radialGradient>
  <radialGradient id="vign" cx="50%" cy="50%" r="72%"><stop offset="55%" stop-color="#07030F" stop-opacity="0"/><stop offset="100%" stop-color="#07030F" stop-opacity="0.55"/></radialGradient>
  <linearGradient id="headCone" x1="0" y1="0" x2="0" y2="1"><stop offset="0%" stop-color="#FFF7E0" stop-opacity="0.20"/><stop offset="100%" stop-color="#FFF7E0" stop-opacity="0"/></linearGradient>
  <filter id="softGlow" x="-60%" y="-60%" width="220%" height="220%"><feGaussianBlur stdDeviation="4" result="b"/><feMerge><feMergeNode in="b"/><feMergeNode in="SourceGraphic"/></feMerge></filter>
</defs><rect width="1600" height="900" fill="#171A2E"/><rect x="1010" y="0" width="590" height="280" fill="#14301F" opacity="0.55"/><rect x="600" y="0" width="400" height="900" fill="#3A3A46"/><rect x="0" y="290" width="1600" height="320" fill="#3A3A46"/><rect x="600" y="0" width="4" height="900" fill="#2C2C36"/><rect x="996" y="0" width="4" height="900" fill="#2C2C36"/><rect x="0" y="290" width="1600" height="4" fill="#2C2C36"/><rect x="0" y="606" width="1600" height="4" fill="#2C2C36"/><rect x="640" y="0" width="320" height="900" fill="#23232B"/><rect x="0" y="330" width="1600" height="240" fill="#23232B"/><ellipse cx="744" cy="458" rx="34" ry="19" fill="#1B1B22" opacity="0.7"/><ellipse cx="138" cy="360" rx="20" ry="15" fill="#1B1B22" opacity="0.7"/><ellipse cx="925" cy="519" rx="19" ry="18" fill="#1B1B22" opacity="0.7"/><ellipse cx="734" cy="514" rx="21" ry="15" fill="#1B1B22" opacity="0.7"/><ellipse cx="704" cy="476" rx="37" ry="13" fill="#1B1B22" opacity="0.7"/><ellipse cx="937" cy="325" rx="38" ry="11" fill="#1B1B22" opacity="0.7"/><ellipse cx="840" cy="657" rx="21" ry="13" fill="#1B1B22" opacity="0.7"/><ellipse cx="243" cy="380" rx="39" ry="15" fill="#1B1B22" opacity="0.7"/><ellipse cx="502" cy="468" rx="20" ry="9" fill="#1B1B22" opacity="0.7"/><ellipse cx="728" cy="494" rx="26" ry="13" fill="#1B1B22" opacity="0.7"/><ellipse cx="36" cy="474" rx="20" ry="17" fill="#1B1B22" opacity="0.7"/><ellipse cx="396" cy="825" rx="31" ry="15" fill="#1B1B22" opacity="0.7"/><ellipse cx="1311" cy="557" rx="45" ry="10" fill="#1B1B22" opacity="0.7"/><ellipse cx="701" cy="11" rx="25" ry="8" fill="#1B1B22" opacity="0.7"/><rect x="797" y="8" width="6" height="30" fill="#F7D154"/><rect x="797" y="62" width="6" height="30" fill="#F7D154"/><rect x="797" y="116" width="6" height="30" fill="#F7D154"/><rect x="797" y="170" width="6" height="30" fill="#F7D154"/><rect x="797" y="224" width="6" height="30" fill="#F7D154"/><rect x="797" y="278" width="6" height="30" fill="#F7D154"/><rect x="797" y="578" width="6" height="30" fill="#F7D154"/><rect x="797" y="632" width="6" height="30" fill="#F7D154"/><rect x="797" y="686" width="6" height="30" fill="#F7D154"/><rect x="797" y="740" width="6" height="30" fill="#F7D154"/><rect x="797" y="794" width="6" height="30" fill="#F7D154"/><rect x="797" y="848" width="6" height="30" fill="#F7D154"/><rect x="8" y="447" width="30" height="6" fill="#F7D154"/><rect x="62" y="447" width="30" height="6" fill="#F7D154"/><rect x="116" y="447" width="30" height="6" fill="#F7D154"/><rect x="170" y="447" width="30" height="6" fill="#F7D154"/><rect x="224" y="447" width="30" height="6" fill="#F7D154"/><rect x="278" y="447" width="30" height="6" fill="#F7D154"/><rect x="332" y="447" width="30" height="6" fill="#F7D154"/><rect x="386" y="447" width="30" height="6" fill="#F7D154"/><rect x="440" y="447" width="30" height="6" fill="#F7D154"/><rect x="494" y="447" width="30" height="6" fill="#F7D154"/><rect x="548" y="447" width="30" height="6" fill="#F7D154"/><rect x="602" y="447" width="30" height="6" fill="#F7D154"/><rect x="968" y="447" width="30" height="6" fill="#F7D154"/><rect x="1022" y="447" width="30" height="6" fill="#F7D154"/><rect x="1076" y="447" width="30" height="6" fill="#F7D154"/><rect x="1130" y="447" width="30" height="6" fill="#F7D154"/><rect x="1184" y="447" width="30" height="6" fill="#F7D154"/><rect x="1238" y="447" width="30" height="6" fill="#F7D154"/><rect x="1292" y="447" width="30" height="6" fill="#F7D154"/><rect x="1346" y="447" width="30" height="6" fill="#F7D154"/><rect x="1400" y="447" width="30" height="6" fill="#F7D154"/><rect x="1454" y="447" width="30" height="6" fill="#F7D154"/><rect x="1508" y="447" width="30" height="6" fill="#F7D154"/><rect x="1562" y="447" width="30" height="6" fill="#F7D154"/><rect x="684" y="0" width="3" height="322" fill="#3F3F4D"/><rect x="684" y="578" width="3" height="322" fill="#3F3F4D"/><rect x="916" y="0" width="3" height="322" fill="#3F3F4D"/><rect x="916" y="578" width="3" height="322" fill="#3F3F4D"/><rect x="0" y="374" width="632" height="3" fill="#3F3F4D"/><rect x="968" y="374" width="632" height="3" fill="#3F3F4D"/><rect x="0" y="526" width="632" height="3" fill="#3F3F4D"/><rect x="968" y="526" width="632" height="3" fill="#3F3F4D"/><rect x="652" y="300" width="26" height="22" fill="#E8E8F0" opacity="0.7"/><rect x="652" y="578" width="26" height="22" fill="#E8E8F0" opacity="0.7"/><rect x="706" y="300" width="26" height="22" fill="#E8E8F0" opacity="0.7"/><rect x="706" y="578" width="26" height="22" fill="#E8E8F0" opacity="0.7"/><rect x="760" y="300" width="26" height="22" fill="#E8E8F0" opacity="0.7"/><rect x="760" y="578" width="26" height="22" fill="#E8E8F0" opacity="0.7"/><rect x="814" y="300" width="26" height="22" fill="#E8E8F0" opacity="0.7"/><rect x="814" y="578" width="26" height="22" fill="#E8E8F0" opacity="0.7"/><rect x="868" y="300" width="26" height="22" fill="#E8E8F0" opacity="0.7"/><rect x="868" y="578" width="26" height="22" fill="#E8E8F0" opacity="0.7"/><rect x="922" y="300" width="26" height="22" fill="#E8E8F0" opacity="0.7"/><rect x="922" y="578" width="26" height="22" fill="#E8E8F0" opacity="0.7"/><rect x="580" y="340" width="22" height="24" fill="#E8E8F0" opacity="0.7"/><rect x="998" y="340" width="22" height="24" fill="#E8E8F0" opacity="0.7"/><rect x="580" y="386" width="22" height="24" fill="#E8E8F0" opacity="0.7"/><rect x="998" y="386" width="22" height="24" fill="#E8E8F0" opacity="0.7"/><rect x="580" y="432" width="22" height="24" fill="#E8E8F0" opacity="0.7"/><rect x="998" y="432" width="22" height="24" fill="#E8E8F0" opacity="0.7"/><rect x="580" y="478" width="22" height="24" fill="#E8E8F0" opacity="0.7"/><rect x="998" y="478" width="22" height="24" fill="#E8E8F0" opacity="0.7"/><rect x="580" y="524" width="22" height="24" fill="#E8E8F0" opacity="0.7"/><rect x="998" y="524" width="22" height="24" fill="#E8E8F0" opacity="0.7"/><rect x="22" y="22" width="263" height="238" rx="4" fill="#2E3A59" stroke="#212940" stroke-width="4"/><rect x="59" y="60" width="34" height="34" rx="6" fill="#242E47"/><rect x="167" y="153" width="52" height="26" rx="4" fill="#252F48"/><rect x="185" y="70" width="18" height="42" rx="3" fill="#232D45"/><circle cx="101" cy="193" r="13" fill="#242E47"/><rect x="307" y="22" width="263" height="238" rx="4" fill="#4A2E59" stroke="#352140" stroke-width="4"/><rect x="344" y="60" width="34" height="34" rx="6" fill="#3B2447"/><rect x="452" y="153" width="52" height="26" rx="4" fill="#3C2548"/><rect x="470" y="70" width="18" height="42" rx="3" fill="#392345"/><circle cx="386" cy="193" r="13" fill="#3B2447"/><rect x="307" y="22" width="263" height="238" rx="4" fill="none" stroke="#FF2E88" stroke-width="3" filter="url(#softGlow)"/><rect x="1030" y="22" width="263" height="238" rx="4" fill="#4A2E59" stroke="#352140" stroke-width="4"/><rect x="1067" y="60" width="34" height="34" rx="6" fill="#3B2447"/><rect x="1175" y="153" width="52" height="26" rx="4" fill="#3C2548"/><rect x="1193" y="70" width="18" height="42" rx="3" fill="#392345"/><circle cx="1109" cy="193" r="13" fill="#3B2447"/><rect x="1030" y="22" width="263" height="238" rx="4" fill="none" stroke="#00E5C7" stroke-width="3" filter="url(#softGlow)"/><rect x="1315" y="22" width="263" height="238" rx="4" fill="#59362E" stroke="#402621" stroke-width="4"/><rect x="1352" y="60" width="34" height="34" rx="6" fill="#472B24"/><rect x="1460" y="153" width="52" height="26" rx="4" fill="#482C25"/><rect x="1478" y="70" width="18" height="42" rx="3" fill="#452A23"/><circle cx="1394" cy="193" r="13" fill="#472B24"/><rect x="22" y="640" width="263" height="238" rx="4" fill="#59362E" stroke="#402621" stroke-width="4"/><rect x="59" y="678" width="34" height="34" rx="6" fill="#472B24"/><rect x="167" y="771" width="52" height="26" rx="4" fill="#482C25"/><rect x="185" y="688" width="18" height="42" rx="3" fill="#452A23"/><circle cx="101" cy="811" r="13" fill="#472B24"/><rect x="22" y="640" width="263" height="238" rx="4" fill="none" stroke="#FFB347" stroke-width="3" filter="url(#softGlow)"/><rect x="307" y="640" width="263" height="238" rx="4" fill="#2E5948" stroke="#214033" stroke-width="4"/><rect x="344" y="678" width="34" height="34" rx="6" fill="#244739"/><rect x="452" y="771" width="52" height="26" rx="4" fill="#25483B"/><rect x="470" y="688" width="18" height="42" rx="3" fill="#234538"/><circle cx="386" cy="811" r="13" fill="#244739"/><rect x="1030" y="640" width="263" height="238" rx="4" fill="#2E5948" stroke="#214033" stroke-width="4"/><rect x="1067" y="678" width="34" height="34" rx="6" fill="#244739"/><rect x="1175" y="771" width="52" height="26" rx="4" fill="#25483B"/><rect x="1193" y="688" width="18" height="42" rx="3" fill="#234538"/><circle cx="1109" cy="811" r="13" fill="#244739"/><rect x="1315" y="640" width="263" height="238" rx="4" fill="#3A2A55" stroke="#291E3D" stroke-width="4"/><rect x="1352" y="678" width="34" height="34" rx="6" fill="#2E2144"/><rect x="1460" y="771" width="52" height="26" rx="4" fill="#2F2245"/><rect x="1478" y="688" width="18" height="42" rx="3" fill="#2D2042"/><circle cx="1394" cy="811" r="13" fill="#2E2144"/><rect x="1315" y="640" width="263" height="238" rx="4" fill="none" stroke="#FF2E88" stroke-width="3" filter="url(#softGlow)"/><circle cx="616" cy="80" r="70" fill="url(#lampPool)"/><circle cx="984" cy="80" r="70" fill="url(#lampPool)"/><circle cx="616" cy="240" r="70" fill="url(#lampPool)"/><circle cx="984" cy="240" r="70" fill="url(#lampPool)"/><circle cx="616" cy="660" r="70" fill="url(#lampPool)"/><circle cx="984" cy="660" r="70" fill="url(#lampPool)"/><circle cx="616" cy="820" r="70" fill="url(#lampPool)"/><circle cx="984" cy="820" r="70" fill="url(#lampPool)"/><circle cx="140" cy="306" r="70" fill="url(#lampPool)"/><circle cx="140" cy="594" r="70" fill="url(#lampPool)"/><circle cx="420" cy="306" r="70" fill="url(#lampPool)"/><circle cx="420" cy="594" r="70" fill="url(#lampPool)"/><circle cx="1180" cy="306" r="70" fill="url(#lampPool)"/><circle cx="1180" cy="594" r="70" fill="url(#lampPool)"/><circle cx="1460" cy="306" r="70" fill="url(#lampPool)"/><circle cx="1460" cy="594" r="70" fill="url(#lampPool)"/><g transform="translate(540 80) scale(0.9857138660529455)"><circle cx="3" cy="4" r="17" fill="#07030F" opacity="0.45"/><path d="M0 0 Q10.2 6.4 21.5 4.6 Q11.5 -3.4 0 0 Z" fill="#1E5B3A" stroke="#00E5C7" stroke-opacity="0.25" stroke-width="1.5"/><path d="M0 0 Q1.4 11.9 9.8 19.7 Q9.9 6.8 0 0 Z" fill="#1E5B3A" stroke="#00E5C7" stroke-opacity="0.25" stroke-width="1.5"/><path d="M0 0 Q-8.5 8.5 -9.2 20.0 Q0.8 12.0 0 0 Z" fill="#1E5B3A" stroke="#00E5C7" stroke-opacity="0.25" stroke-width="1.5"/><path d="M0 0 Q-11.9 -1.3 -21.4 5.2 Q-8.9 8.1 0 0 Z" fill="#1E5B3A" stroke="#00E5C7" stroke-opacity="0.25" stroke-width="1.5"/><path d="M0 0 Q-6.4 -10.2 -17.4 -13.5 Q-11.9 -1.9 0 0 Z" fill="#1E5B3A" stroke="#00E5C7" stroke-opacity="0.25" stroke-width="1.5"/><path d="M0 0 Q3.9 -11.3 -0.3 -22.0 Q-5.9 -10.4 0 0 Z" fill="#1E5B3A" stroke="#00E5C7" stroke-opacity="0.25" stroke-width="1.5"/><path d="M0 0 Q11.3 -4.0 17.0 -14.0 Q4.5 -11.1 0 0 Z" fill="#1E5B3A" stroke="#00E5C7" stroke-opacity="0.25" stroke-width="1.5"/><circle r="5" fill="#14301F"/></g><g transform="translate(560 760) scale(1.0179317158241488)"><circle cx="3" cy="4" r="17" fill="#07030F" opacity="0.45"/><path d="M0 0 Q10.2 6.4 21.5 4.6 Q11.5 -3.4 0 0 Z" fill="#1E5B3A" stroke="#00E5C7" stroke-opacity="0.25" stroke-width="1.5"/><path d="M0 0 Q1.4 11.9 9.8 19.7 Q9.9 6.8 0 0 Z" fill="#1E5B3A" stroke="#00E5C7" stroke-opacity="0.25" stroke-width="1.5"/><path d="M0 0 Q-8.5 8.5 -9.2 20.0 Q0.8 12.0 0 0 Z" fill="#1E5B3A" stroke="#00E5C7" stroke-opacity="0.25" stroke-width="1.5"/><path d="M0 0 Q-11.9 -1.3 -21.4 5.2 Q-8.9 8.1 0 0 Z" fill="#1E5B3A" stroke="#00E5C7" stroke-opacity="0.25" stroke-width="1.5"/><path d="M0 0 Q-6.4 -10.2 -17.4 -13.5 Q-11.9 -1.9 0 0 Z" fill="#1E5B3A" stroke="#00E5C7" stroke-opacity="0.25" stroke-width="1.5"/><path d="M0 0 Q3.9 -11.3 -0.3 -22.0 Q-5.9 -10.4 0 0 Z" fill="#1E5B3A" stroke="#00E5C7" stroke-opacity="0.25" stroke-width="1.5"/><path d="M0 0 Q11.3 -4.0 17.0 -14.0 Q4.5 -11.1 0 0 Z" fill="#1E5B3A" stroke="#00E5C7" stroke-opacity="0.25" stroke-width="1.5"/><circle r="5" fill="#14301F"/></g><g transform="translate(1060 120) scale(1.1272631752071187)"><circle cx="3" cy="4" r="17" fill="#07030F" opacity="0.45"/><path d="M0 0 Q10.2 6.4 21.5 4.6 Q11.5 -3.4 0 0 Z" fill="#1E5B3A" stroke="#00E5C7" stroke-opacity="0.25" stroke-width="1.5"/><path d="M0 0 Q1.4 11.9 9.8 19.7 Q9.9 6.8 0 0 Z" fill="#1E5B3A" stroke="#00E5C7" stroke-opacity="0.25" stroke-width="1.5"/><path d="M0 0 Q-8.5 8.5 -9.2 20.0 Q0.8 12.0 0 0 Z" fill="#1E5B3A" stroke="#00E5C7" stroke-opacity="0.25" stroke-width="1.5"/><path d="M0 0 Q-11.9 -1.3 -21.4 5.2 Q-8.9 8.1 0 0 Z" fill="#1E5B3A" stroke="#00E5C7" stroke-opacity="0.25" stroke-width="1.5"/><path d="M0 0 Q-6.4 -10.2 -17.4 -13.5 Q-11.9 -1.9 0 0 Z" fill="#1E5B3A" stroke="#00E5C7" stroke-opacity="0.25" stroke-width="1.5"/><path d="M0 0 Q3.9 -11.3 -0.3 -22.0 Q-5.9 -10.4 0 0 Z" fill="#1E5B3A" stroke="#00E5C7" stroke-opacity="0.25" stroke-width="1.5"/><path d="M0 0 Q11.3 -4.0 17.0 -14.0 Q4.5 -11.1 0 0 Z" fill="#1E5B3A" stroke="#00E5C7" stroke-opacity="0.25" stroke-width="1.5"/><circle r="5" fill="#14301F"/></g><g transform="translate(1052 700) scale(0.989695021029932)"><circle cx="3" cy="4" r="17" fill="#07030F" opacity="0.45"/><path d="M0 0 Q10.2 6.4 21.5 4.6 Q11.5 -3.4 0 0 Z" fill="#1E5B3A" stroke="#00E5C7" stroke-opacity="0.25" stroke-width="1.5"/><path d="M0 0 Q1.4 11.9 9.8 19.7 Q9.9 6.8 0 0 Z" fill="#1E5B3A" stroke="#00E5C7" stroke-opacity="0.25" stroke-width="1.5"/><path d="M0 0 Q-8.5 8.5 -9.2 20.0 Q0.8 12.0 0 0 Z" fill="#1E5B3A" stroke="#00E5C7" stroke-opacity="0.25" stroke-width="1.5"/><path d="M0 0 Q-11.9 -1.3 -21.4 5.2 Q-8.9 8.1 0 0 Z" fill="#1E5B3A" stroke="#00E5C7" stroke-opacity="0.25" stroke-width="1.5"/><path d="M0 0 Q-6.4 -10.2 -17.4 -13.5 Q-11.9 -1.9 0 0 Z" fill="#1E5B3A" stroke="#00E5C7" stroke-opacity="0.25" stroke-width="1.5"/><path d="M0 0 Q3.9 -11.3 -0.3 -22.0 Q-5.9 -10.4 0 0 Z" fill="#1E5B3A" stroke="#00E5C7" stroke-opacity="0.25" stroke-width="1.5"/><path d="M0 0 Q11.3 -4.0 17.0 -14.0 Q4.5 -11.1 0 0 Z" fill="#1E5B3A" stroke="#00E5C7" stroke-opacity="0.25" stroke-width="1.5"/><circle r="5" fill="#14301F"/></g><g transform="translate(180 250) scale(1.0023523819186813)"><circle cx="3" cy="4" r="17" fill="#07030F" opacity="0.45"/><path d="M0 0 Q10.2 6.4 21.5 4.6 Q11.5 -3.4 0 0 Z" fill="#1E5B3A" stroke="#00E5C7" stroke-opacity="0.25" stroke-width="1.5"/><path d="M0 0 Q1.4 11.9 9.8 19.7 Q9.9 6.8 0 0 Z" fill="#1E5B3A" stroke="#00E5C7" stroke-opacity="0.25" stroke-width="1.5"/><path d="M0 0 Q-8.5 8.5 -9.2 20.0 Q0.8 12.0 0 0 Z" fill="#1E5B3A" stroke="#00E5C7" stroke-opacity="0.25" stroke-width="1.5"/><path d="M0 0 Q-11.9 -1.3 -21.4 5.2 Q-8.9 8.1 0 0 Z" fill="#1E5B3A" stroke="#00E5C7" stroke-opacity="0.25" stroke-width="1.5"/><path d="M0 0 Q-6.4 -10.2 -17.4 -13.5 Q-11.9 -1.9 0 0 Z" fill="#1E5B3A" stroke="#00E5C7" stroke-opacity="0.25" stroke-width="1.5"/><path d="M0 0 Q3.9 -11.3 -0.3 -22.0 Q-5.9 -10.4 0 0 Z" fill="#1E5B3A" stroke="#00E5C7" stroke-opacity="0.25" stroke-width="1.5"/><path d="M0 0 Q11.3 -4.0 17.0 -14.0 Q4.5 -11.1 0 0 Z" fill="#1E5B3A" stroke="#00E5C7" stroke-opacity="0.25" stroke-width="1.5"/><circle r="5" fill="#14301F"/></g><g transform="translate(1420 640) scale(1.026215448654969)"><circle cx="3" cy="4" r="17" fill="#07030F" opacity="0.45"/><path d="M0 0 Q10.2 6.4 21.5 4.6 Q11.5 -3.4 0 0 Z" fill="#1E5B3A" stroke="#00E5C7" stroke-opacity="0.25" stroke-width="1.5"/><path d="M0 0 Q1.4 11.9 9.8 19.7 Q9.9 6.8 0 0 Z" fill="#1E5B3A" stroke="#00E5C7" stroke-opacity="0.25" stroke-width="1.5"/><path d="M0 0 Q-8.5 8.5 -9.2 20.0 Q0.8 12.0 0 0 Z" fill="#1E5B3A" stroke="#00E5C7" stroke-opacity="0.25" stroke-width="1.5"/><path d="M0 0 Q-11.9 -1.3 -21.4 5.2 Q-8.9 8.1 0 0 Z" fill="#1E5B3A" stroke="#00E5C7" stroke-opacity="0.25" stroke-width="1.5"/><path d="M0 0 Q-6.4 -10.2 -17.4 -13.5 Q-11.9 -1.9 0 0 Z" fill="#1E5B3A" stroke="#00E5C7" stroke-opacity="0.25" stroke-width="1.5"/><path d="M0 0 Q3.9 -11.3 -0.3 -22.0 Q-5.9 -10.4 0 0 Z" fill="#1E5B3A" stroke="#00E5C7" stroke-opacity="0.25" stroke-width="1.5"/><path d="M0 0 Q11.3 -4.0 17.0 -14.0 Q4.5 -11.1 0 0 Z" fill="#1E5B3A" stroke="#00E5C7" stroke-opacity="0.25" stroke-width="1.5"/><circle r="5" fill="#14301F"/></g><g transform="translate(420 646) scale(0.905398103156463)"><circle cx="3" cy="4" r="17" fill="#07030F" opacity="0.45"/><path d="M0 0 Q10.2 6.4 21.5 4.6 Q11.5 -3.4 0 0 Z" fill="#1E5B3A" stroke="#00E5C7" stroke-opacity="0.25" stroke-width="1.5"/><path d="M0 0 Q1.4 11.9 9.8 19.7 Q9.9 6.8 0 0 Z" fill="#1E5B3A" stroke="#00E5C7" stroke-opacity="0.25" stroke-width="1.5"/><path d="M0 0 Q-8.5 8.5 -9.2 20.0 Q0.8 12.0 0 0 Z" fill="#1E5B3A" stroke="#00E5C7" stroke-opacity="0.25" stroke-width="1.5"/><path d="M0 0 Q-11.9 -1.3 -21.4 5.2 Q-8.9 8.1 0 0 Z" fill="#1E5B3A" stroke="#00E5C7" stroke-opacity="0.25" stroke-width="1.5"/><path d="M0 0 Q-6.4 -10.2 -17.4 -13.5 Q-11.9 -1.9 0 0 Z" fill="#1E5B3A" stroke="#00E5C7" stroke-opacity="0.25" stroke-width="1.5"/><path d="M0 0 Q3.9 -11.3 -0.3 -22.0 Q-5.9 -10.4 0 0 Z" fill="#1E5B3A" stroke="#00E5C7" stroke-opacity="0.25" stroke-width="1.5"/><path d="M0 0 Q11.3 -4.0 17.0 -14.0 Q4.5 -11.1 0 0 Z" fill="#1E5B3A" stroke="#00E5C7" stroke-opacity="0.25" stroke-width="1.5"/><circle r="5" fill="#14301F"/></g><g transform="translate(1240 250) scale(1.0035725917125415)"><circle cx="3" cy="4" r="17" fill="#07030F" opacity="0.45"/><path d="M0 0 Q10.2 6.4 21.5 4.6 Q11.5 -3.4 0 0 Z" fill="#1E5B3A" stroke="#00E5C7" stroke-opacity="0.25" stroke-width="1.5"/><path d="M0 0 Q1.4 11.9 9.8 19.7 Q9.9 6.8 0 0 Z" fill="#1E5B3A" stroke="#00E5C7" stroke-opacity="0.25" stroke-width="1.5"/><path d="M0 0 Q-8.5 8.5 -9.2 20.0 Q0.8 12.0 0 0 Z" fill="#1E5B3A" stroke="#00E5C7" stroke-opacity="0.25" stroke-width="1.5"/><path d="M0 0 Q-11.9 -1.3 -21.4 5.2 Q-8.9 8.1 0 0 Z" fill="#1E5B3A" stroke="#00E5C7" stroke-opacity="0.25" stroke-width="1.5"/><path d="M0 0 Q-6.4 -10.2 -17.4 -13.5 Q-11.9 -1.9 0 0 Z" fill="#1E5B3A" stroke="#00E5C7" stroke-opacity="0.25" stroke-width="1.5"/><path d="M0 0 Q3.9 -11.3 -0.3 -22.0 Q-5.9 -10.4 0 0 Z" fill="#1E5B3A" stroke="#00E5C7" stroke-opacity="0.25" stroke-width="1.5"/><path d="M0 0 Q11.3 -4.0 17.0 -14.0 Q4.5 -11.1 0 0 Z" fill="#1E5B3A" stroke="#00E5C7" stroke-opacity="0.25" stroke-width="1.5"/><circle r="5" fill="#14301F"/></g><path d="M700 700 C760 640 830 620 906 636" stroke="#0A0A0E" stroke-width="9" fill="none" opacity="0.5" stroke-linecap="round"/><path d="M688 720 C752 662 824 644 900 660" stroke="#0A0A0E" stroke-width="9" fill="none" opacity="0.45" stroke-linecap="round"/><ellipse cx="872" cy="600" rx="90" ry="64" fill="url(#tealGlow)"/><g transform="translate(872 600) rotate(-118)"><path d="M-16 -44 L-46 -150 L46 -150 L16 -44 Z" fill="url(#headCone)"/><rect x="-24" y="-40" width="48" height="92" rx="14" fill="#07030F" opacity="0.5"/><rect x="-22" y="-44" width="44" height="88" rx="12" fill="#00E5C7"/><rect x="-18" y="-26" width="36" height="20" rx="6" fill="#10101C"/><rect x="-18" y="16" width="36" height="14" rx="5" fill="#10101C" opacity="0.85"/><rect x="-4" y="-44" width="8" height="88" fill="#FFF7F0"/><rect x="-18" y="40" width="12" height="5" rx="2.5" fill="#FF3B3B" filter="url(#softGlow)"/><rect x="6" y="40" width="12" height="5" rx="2.5" fill="#FF3B3B" filter="url(#softGlow)"/></g><g transform="translate(796 780) rotate(-14)"><path d="M-16 -44 L-46 -150 L46 -150 L16 -44 Z" fill="url(#headCone)"/><ellipse cx="-24" cy="-8" rx="56" ry="46" fill="url(#copRed)"/><ellipse cx="24" cy="-8" rx="56" ry="46" fill="url(#copBlue)"/><rect x="-24" y="-40" width="48" height="92" rx="14" fill="#07030F" opacity="0.5"/><rect x="-22" y="-44" width="44" height="88" rx="12" fill="#E8E8F0"/><rect x="-22" y="-44" width="44" height="18" rx="9" fill="#1A1A24"/><rect x="-22" y="28" width="44" height="16" rx="8" fill="#1A1A24"/><rect x="-19" y="-8" width="38" height="24" rx="6" fill="#10101C"/><rect x="-11" y="-6" width="11" height="8" rx="2" fill="#FF3B3B" filter="url(#softGlow)"/><rect x="0" y="-6" width="11" height="8" rx="2" fill="#3B82FF" filter="url(#softGlow)"/><rect x="-18" y="40" width="12" height="5" rx="2.5" fill="#FF3B3B" filter="url(#softGlow)"/><rect x="6" y="40" width="12" height="5" rx="2.5" fill="#FF3B3B" filter="url(#softGlow)"/></g><g transform="translate(480 452) rotate(96)"><path d="M-16 -44 L-46 -150 L46 -150 L16 -44 Z" fill="url(#headCone)"/><ellipse cx="-24" cy="-8" rx="56" ry="46" fill="url(#copRed)"/><ellipse cx="24" cy="-8" rx="56" ry="46" fill="url(#copBlue)"/><rect x="-24" y="-40" width="48" height="92" rx="14" fill="#07030F" opacity="0.5"/><rect x="-22" y="-44" width="44" height="88" rx="12" fill="#E8E8F0"/><rect x="-22" y="-44" width="44" height="18" rx="9" fill="#1A1A24"/><rect x="-22" y="28" width="44" height="16" rx="8" fill="#1A1A24"/><rect x="-19" y="-8" width="38" height="24" rx="6" fill="#10101C"/><rect x="-11" y="-6" width="11" height="8" rx="2" fill="#FF3B3B" filter="url(#softGlow)"/><rect x="0" y="-6" width="11" height="8" rx="2" fill="#3B82FF" filter="url(#softGlow)"/><rect x="-18" y="40" width="12" height="5" rx="2.5" fill="#FF3B3B" filter="url(#softGlow)"/><rect x="6" y="40" width="12" height="5" rx="2.5" fill="#FF3B3B" filter="url(#softGlow)"/></g><g transform="translate(906 170) rotate(2)"><path d="M-16 -44 L-46 -150 L46 -150 L16 -44 Z" fill="url(#headCone)"/><rect x="-24" y="-40" width="48" height="92" rx="14" fill="#07030F" opacity="0.5"/><rect x="-22" y="-44" width="44" height="88" rx="12" fill="#FF7A29"/><rect x="-18" y="-26" width="36" height="20" rx="6" fill="#10101C"/><rect x="-18" y="16" width="36" height="14" rx="5" fill="#10101C" opacity="0.85"/><rect x="-18" y="40" width="12" height="5" rx="2.5" fill="#FF3B3B" filter="url(#softGlow)"/><rect x="6" y="40" width="12" height="5" rx="2.5" fill="#FF3B3B" filter="url(#softGlow)"/></g><g transform="translate(210 500) rotate(90)"><path d="M-16 -44 L-46 -150 L46 -150 L16 -44 Z" fill="url(#headCone)"/><rect x="-24" y="-40" width="48" height="92" rx="14" fill="#07030F" opacity="0.5"/><rect x="-22" y="-44" width="44" height="88" rx="12" fill="#FFD60A"/><rect x="-18" y="-26" width="36" height="20" rx="6" fill="#10101C"/><rect x="-18" y="16" width="36" height="14" rx="5" fill="#10101C" opacity="0.85"/><rect x="-18" y="40" width="12" height="5" rx="2.5" fill="#FF3B3B" filter="url(#softGlow)"/><rect x="6" y="40" width="12" height="5" rx="2.5" fill="#FF3B3B" filter="url(#softGlow)"/></g><g transform="translate(1330 400) rotate(-88)"><path d="M-16 -44 L-46 -150 L46 -150 L16 -44 Z" fill="url(#headCone)"/><rect x="-24" y="-40" width="48" height="92" rx="14" fill="#07030F" opacity="0.5"/><rect x="-22" y="-44" width="44" height="88" rx="12" fill="#7CFF6B"/><rect x="-18" y="-26" width="36" height="20" rx="6" fill="#10101C"/><rect x="-18" y="16" width="36" height="14" rx="5" fill="#10101C" opacity="0.85"/><rect x="-18" y="40" width="12" height="5" rx="2.5" fill="#FF3B3B" filter="url(#softGlow)"/><rect x="6" y="40" width="12" height="5" rx="2.5" fill="#FF3B3B" filter="url(#softGlow)"/></g><g transform="translate(560 360) rotate(-40)"><rect x="-7" y="-12" width="14" height="24" rx="7" fill="#FFB347"/><circle cx="0" cy="-16" r="6.5" fill="#FFF15F"/><path d="M-12 10 L-20 20 M10 12 L18 22" stroke="#FFB347" stroke-width="4" stroke-linecap="round" opacity="0.85"/></g><g transform="translate(1040 540) rotate(30)"><rect x="-7" y="-12" width="14" height="24" rx="7" fill="#C9B8E8"/><circle cx="0" cy="-16" r="6.5" fill="#FFF8FF"/><path d="M-12 10 L-20 20 M10 12 L18 22" stroke="#C9B8E8" stroke-width="4" stroke-linecap="round" opacity="0.85"/></g><g transform="translate(700 250) rotate(-90)"><rect x="-7" y="-12" width="14" height="24" rx="7" fill="#7CFF6B"/><circle cx="0" cy="-16" r="6.5" fill="#A7FF90"/><path d="M-12 10 L-20 20 M10 12 L18 22" stroke="#7CFF6B" stroke-width="4" stroke-linecap="round" opacity="0.85"/></g><g transform="translate(380 640) rotate(10)"><rect x="-7" y="-12" width="14" height="24" rx="7" fill="#FF6BB0"/><circle cx="0" cy="-16" r="6.5" fill="#FF90ED"/><path d="M-12 10 L-20 20 M10 12 L18 22" stroke="#FF6BB0" stroke-width="4" stroke-linecap="round" opacity="0.85"/></g><g transform="translate(980 700) rotate(60)"><rect x="-7" y="-12" width="14" height="24" rx="7" fill="#FFB347"/><circle cx="0" cy="-16" r="6.5" fill="#FFF15F"/><path d="M-12 10 L-20 20 M10 12 L18 22" stroke="#FFB347" stroke-width="4" stroke-linecap="round" opacity="0.85"/></g><g transform="translate(150 360) rotate(-15)"><rect x="-7" y="-12" width="14" height="24" rx="7" fill="#C9B8E8"/><circle cx="0" cy="-16" r="6.5" fill="#FFF8FF"/><path d="M-12 10 L-20 20 M10 12 L18 22" stroke="#C9B8E8" stroke-width="4" stroke-linecap="round" opacity="0.85"/></g><g transform="translate(1240 560) rotate(25)"><rect x="-7" y="-12" width="14" height="24" rx="7" fill="#7CFF6B"/><circle cx="0" cy="-16" r="6.5" fill="#A7FF90"/><path d="M-12 10 L-20 20 M10 12 L18 22" stroke="#7CFF6B" stroke-width="4" stroke-linecap="round" opacity="0.85"/></g><g transform="translate(860 120) rotate(0)"><rect x="-7" y="-12" width="14" height="24" rx="7" fill="#FF6BB0"/><circle cx="0" cy="-16" r="6.5" fill="#FF90ED"/><path d="M-12 10 L-20 20 M10 12 L18 22" stroke="#FF6BB0" stroke-width="4" stroke-linecap="round" opacity="0.85"/></g><g transform="translate(540 830) rotate(45)"><rect x="-7" y="-12" width="14" height="24" rx="7" fill="#FFB347"/><circle cx="0" cy="-16" r="6.5" fill="#FFF15F"/><path d="M-12 10 L-20 20 M10 12 L18 22" stroke="#FFB347" stroke-width="4" stroke-linecap="round" opacity="0.85"/></g><g transform="translate(1120 330) rotate(-60)"><rect x="-7" y="-12" width="14" height="24" rx="7" fill="#C9B8E8"/><circle cx="0" cy="-16" r="6.5" fill="#FFF8FF"/><path d="M-12 10 L-20 20 M10 12 L18 22" stroke="#C9B8E8" stroke-width="4" stroke-linecap="round" opacity="0.85"/></g><circle cx="1052" cy="430" r="26" fill="url(#goldGlow)"/><circle cx="1052" cy="430" r="9" fill="#FFD60A"/><text x="1052" y="435" font-family="monospace" font-size="12" font-weight="bold" fill="#07030F" text-anchor="middle">$</text><g><circle cx="712" cy="44" r="22" fill="url(#goldGlow)"/><g transform="translate(698 30) scale(1.17)"><path d="M12 2.2 L14.9 8.4 L21.7 9.2 L16.6 13.9 L18 20.6 L12 17.2 L6 20.6 L7.4 13.9 L2.3 9.2 L9.1 8.4 Z" fill="#FFD60A" stroke="#07030F" stroke-width="1.4"/></g><circle cx="756" cy="44" r="22" fill="url(#goldGlow)"/><g transform="translate(742 30) scale(1.17)"><path d="M12 2.2 L14.9 8.4 L21.7 9.2 L16.6 13.9 L18 20.6 L12 17.2 L6 20.6 L7.4 13.9 L2.3 9.2 L9.1 8.4 Z" fill="#FFD60A" stroke="#07030F" stroke-width="1.4"/></g><circle cx="800" cy="44" r="22" fill="url(#goldGlow)"/><g transform="translate(786 30) scale(1.17)"><path d="M12 2.2 L14.9 8.4 L21.7 9.2 L16.6 13.9 L18 20.6 L12 17.2 L6 20.6 L7.4 13.9 L2.3 9.2 L9.1 8.4 Z" fill="#FFD60A" stroke="#07030F" stroke-width="1.4"/></g><circle cx="844" cy="44" r="22" fill="url(#goldGlow)"/><g transform="translate(830 30) scale(1.17)"><path d="M12 2.2 L14.9 8.4 L21.7 9.2 L16.6 13.9 L18 20.6 L12 17.2 L6 20.6 L7.4 13.9 L2.3 9.2 L9.1 8.4 Z" fill="#FFD60A" stroke="#07030F" stroke-width="1.4"/></g><circle cx="888" cy="44" r="22" fill="url(#goldGlow)"/><g transform="translate(874 30) scale(1.17)"><path d="M12 2.2 L14.9 8.4 L21.7 9.2 L16.6 13.9 L18 20.6 L12 17.2 L6 20.6 L7.4 13.9 L2.3 9.2 L9.1 8.4 Z" fill="#FFD60A" stroke="#07030F" stroke-width="1.4"/></g><text x="28" y="52" font-family="'Courier New', monospace" font-size="34" font-weight="bold" fill="#7CFF6B" letter-spacing="1">R$ 1.250</text><circle cx="110" cy="786" r="86" fill="#0D0618" opacity="0.92" stroke="#00E5C7" stroke-opacity="0.6" stroke-width="2.5"/><g transform="translate(110 786)"><rect x="-9" y="-86" width="18" height="172" fill="#23232B"/><rect x="-86" y="-8" width="172" height="16" fill="#23232B"/><rect x="-1.5" y="-86" width="3" height="172" fill="#F7D154" opacity="0.6"/><circle cx="0" cy="0" r="7" fill="#00E5C7" filter="url(#softGlow)"/><circle cx="-26" cy="34" r="5" fill="#FF3B3B"/><circle cx="30" cy="-30" r="5" fill="#3B82FF"/><circle cx="44" cy="18" r="3.5" fill="#FFD60A"/><circle cx="-40" cy="-22" r="3" fill="#C9B8E8"/></g><text x="1530" y="838" font-family="Arial, sans-serif" font-size="52" font-weight="bold" fill="#FFF7F0" text-anchor="end">87</text><text x="1530" y="866" font-family="'Courier New', monospace" font-size="18" fill="#C9B8E8" text-anchor="end">km/h</text></g><rect width="1600" height="900" fill="#07030F" opacity="0.10"/><rect width="1600" height="900" fill="url(#vign)"/></svg>