<svg xmlns="http://www.w3.org/2000/svg" width="1200" height="630" viewBox="0 0 1200 630" fill="none"><defs>
  <linearGradient id="sky" x1="0" y1="0" x2="0" y2="1">
    <stop offset="0%" stop-color="#07030F"/><stop offset="38%" stop-color="#1B0B33"/>
    <stop offset="62%" stop-color="#4A1A5C"/><stop offset="80%" stop-color="#B03060"/>
    <stop offset="100%" stop-color="#FF7A29"/>
  </linearGradient>
  <radialGradient id="sun" cx="50%" cy="50%" r="50%">
    <stop offset="0%" stop-color="#FFB347"/><stop offset="45%" stop-color="#FF7A29"/><stop offset="100%" stop-color="#FF2E88"/>
  </radialGradient>
  <linearGradient id="titleGrad" x1="0" y1="0" x2="1" y2="0.35">
    <stop offset="0%" stop-color="#FF2E88"/><stop offset="55%" stop-color="#FF7A29"/><stop offset="100%" stop-color="#FFB347"/>
  </linearGradient>
  <filter id="glowT" x="-40%" y="-40%" width="180%" height="180%"><feGaussianBlur stdDeviation="10" result="b"/><feMerge><feMergeNode in="b"/><feMergeNode in="SourceGraphic"/></feMerge></filter>
  <mask id="sunStripes"><rect width="1200" height="630" fill="white"/>
    <rect x="440" y="356" width="320" height="5" fill="black"/><rect x="440" y="370" width="320" height="7" fill="black"/>
    <rect x="440" y="387" width="320" height="9" fill="black"/><rect x="440" y="407" width="320" height="11" fill="black"/>
    <rect x="440" y="430" width="320" height="14" fill="black"/>
  </mask>
</defs><rect width="1200" height="630" fill="url(#sky)"/><circle cx="747" cy="163" r="1.5" fill="#FFF7F0" opacity="0.86"/><circle cx="888" cy="203" r="0.6" fill="#FFF7F0" opacity="0.55"/><circle cx="1132" cy="143" r="1.6" fill="#FFF7F0" opacity="0.32"/><circle cx="563" cy="54" r="1.2" fill="#FFF7F0" opacity="0.62"/><circle cx="16" cy="48" r="0.9" fill="#FFF7F0" opacity="0.85"/><circle cx="919" cy="35" r="1.5" fill="#FFF7F0" opacity="0.34"/><circle cx="741" cy="28" r="0.6" fill="#FFF7F0" opacity="0.82"/><circle cx="251" cy="47" r="1.7" fill="#FFF7F0" opacity="0.82"/><circle cx="347" cy="212" r="1.2" fill="#FFF7F0" opacity="0.69"/><circle cx="246" cy="207" r="1.4" fill="#FFF7F0" opacity="0.88"/><circle cx="1072" cy="66" r="1.0" fill="#FFF7F0" opacity="0.36"/><circle cx="175" cy="14" r="0.9" fill="#FFF7F0" opacity="0.64"/><circle cx="4" cy="149" r="1.0" fill="#FFF7F0" opacity="0.45"/><circle cx="982" cy="106" r="0.9" fill="#FFF7F0" opacity="0.56"/><circle cx="846" cy="13" r="1.7" fill="#FFF7F0" opacity="0.26"/><circle cx="900" cy="186" r="0.6" fill="#FFF7F0" opacity="0.76"/><circle cx="439" cy="127" r="0.6" fill="#FFF7F0" opacity="0.28"/><circle cx="217" cy="210" r="0.8" fill="#FFF7F0" opacity="0.74"/><circle cx="1116" cy="207" r="1.0" fill="#FFF7F0" opacity="0.48"/><circle cx="630" cy="171" r="0.7" fill="#FFF7F0" opacity="0.74"/><circle cx="957" cy="189" r="0.6" fill="#FFF7F0" opacity="0.86"/><circle cx="109" cy="75" r="1.3" fill="#FFF7F0" opacity="0.85"/><circle cx="408" cy="203" r="1.2" fill="#FFF7F0" opacity="0.45"/><circle cx="380" cy="39" r="0.7" fill="#FFF7F0" opacity="0.35"/><circle cx="827" cy="219" r="0.8" fill="#FFF7F0" opacity="0.28"/><circle cx="1184" cy="117" r="1.0" fill="#FFF7F0" opacity="0.40"/><circle cx="713" cy="182" r="1.1" fill="#FFF7F0" opacity="0.52"/><circle cx="67" cy="202" r="0.6" fill="#FFF7F0" opacity="0.57"/><circle cx="1006" cy="29" r="1.4" fill="#FFF7F0" opacity="0.87"/><circle cx="756" cy="173" r="0.7" fill="#FFF7F0" opacity="0.53"/><circle cx="179" cy="186" r="0.9" fill="#FFF7F0" opacity="0.54"/><circle cx="1199" cy="187" r="1.7" fill="#FFF7F0" opacity="0.54"/><circle cx="586" cy="160" r="1.1" fill="#FFF7F0" opacity="0.44"/><circle cx="485" cy="32" r="1.0" fill="#FFF7F0" opacity="0.89"/><circle cx="1152" cy="138" r="1.1" fill="#FFF7F0" opacity="0.47"/><circle cx="107" cy="60" r="1.5" fill="#FFF7F0" opacity="0.81"/><circle cx="434" cy="173" r="1.5" fill="#FFF7F0" opacity="0.70"/><circle cx="797" cy="167" r="1.0" fill="#FFF7F0" opacity="0.71"/><circle cx="337" cy="107" r="1.4" fill="#FFF7F0" opacity="0.70"/><circle cx="353" cy="208" r="1.3" fill="#FFF7F0" opacity="0.63"/><circle cx="14" cy="120" r="0.9" fill="#FFF7F0" opacity="0.69"/><circle cx="556" cy="180" r="1.3" fill="#FFF7F0" opacity="0.77"/><circle cx="417" cy="142" r="1.4" fill="#FFF7F0" opacity="0.79"/><circle cx="420" cy="185" r="1.6" fill="#FFF7F0" opacity="0.70"/><circle cx="1171" cy="210" r="1.2" fill="#FFF7F0" opacity="0.59"/><circle cx="199" cy="184" r="1.6" fill="#FFF7F0" opacity="0.56"/><circle cx="600" cy="330" r="130" fill="url(#sun)" mask="url(#sunStripes)"/><circle cx="600" cy="330" r="150" fill="none" stroke="#FF7A29" stroke-opacity="0.25" stroke-width="14"/><g><rect x="0" y="465" width="119" height="165" fill="#07030F"/><rect x="34" y="501" width="4" height="6" fill="#00E5C7" opacity="0.9"/><rect x="9" y="546" width="4" height="6" fill="#00E5C7" opacity="0.9"/><rect x="16" y="553" width="4" height="6" fill="#00E5C7" opacity="0.9"/><rect x="77" y="578" width="4" height="6" fill="#FF2E88" opacity="0.9"/><rect x="78" y="539" width="4" height="6" fill="#00E5C7" opacity="0.9"/><rect x="50" y="499" width="4" height="6" fill="#FF2E88" opacity="0.9"/><rect x="19" y="546" width="4" height="6" fill="#00E5C7" opacity="0.9"/><rect x="115" y="534" width="109" height="96" fill="#07030F"/><rect x="205" y="559" width="4" height="6" fill="#FF2E88" opacity="0.9"/><rect x="188" y="574" width="4" height="6" fill="#FF2E88" opacity="0.9"/><rect x="192" y="610" width="4" height="6" fill="#FF7A29" opacity="0.9"/><rect x="148" y="602" width="4" height="6" fill="#FF2E88" opacity="0.9"/><rect x="218" y="546" width="112" height="84" fill="#07030F"/><rect x="308" y="607" width="4" height="6" fill="#FF2E88" opacity="0.9"/><rect x="228" y="581" width="4" height="6" fill="#FF2E88" opacity="0.9"/><rect x="315" y="556" width="4" height="6" fill="#00E5C7" opacity="0.9"/><rect x="330" y="476" width="85" height="154" fill="#07030F"/><rect x="339" y="497" width="4" height="6" fill="#00E5C7" opacity="0.9"/><rect x="398" y="551" width="4" height="6" fill="#00E5C7" opacity="0.9"/><rect x="370" y="606" width="4" height="6" fill="#FF7A29" opacity="0.9"/><rect x="342" y="511" width="4" height="6" fill="#FF2E88" opacity="0.9"/><rect x="384" y="505" width="4" height="6" fill="#00E5C7" opacity="0.9"/><rect x="410" y="491" width="66" height="139" fill="#07030F"/><rect x="444" y="571" width="4" height="6" fill="#FF2E88" opacity="0.9"/><rect x="452" y="586" width="4" height="6" fill="#00E5C7" opacity="0.9"/><rect x="464" y="515" width="4" height="6" fill="#00E5C7" opacity="0.9"/><rect x="482" y="519" width="90" height="111" fill="#07030F"/><rect x="533" y="533" width="4" height="6" fill="#FF7A29" opacity="0.9"/><rect x="549" y="574" width="4" height="6" fill="#00E5C7" opacity="0.9"/><rect x="544" y="537" width="4" height="6" fill="#FF7A29" opacity="0.9"/><rect x="569" y="467" width="134" height="163" fill="#07030F"/><rect x="628" y="533" width="4" height="6" fill="#00E5C7" opacity="0.9"/><rect x="662" y="530" width="4" height="6" fill="#00E5C7" opacity="0.9"/><rect x="614" y="537" width="4" height="6" fill="#FF2E88" opacity="0.9"/><rect x="602" y="514" width="4" height="6" fill="#FF2E88" opacity="0.9"/><rect x="612" y="517" width="4" height="6" fill="#00E5C7" opacity="0.9"/><rect x="666" y="481" width="4" height="6" fill="#00E5C7" opacity="0.9"/><rect x="669" y="546" width="4" height="6" fill="#00E5C7" opacity="0.9"/><rect x="666" y="556" width="4" height="6" fill="#FF2E88" opacity="0.9"/><rect x="710" y="536" width="89" height="94" fill="#07030F"/><rect x="785" y="574" width="4" height="6" fill="#FF7A29" opacity="0.9"/><rect x="784" y="585" width="4" height="6" fill="#FF2E88" opacity="0.9"/><rect x="764" y="558" width="4" height="6" fill="#FF7A29" opacity="0.9"/><rect x="793" y="516" width="66" height="114" fill="#07030F"/><rect x="813" y="541" width="4" height="6" fill="#FF2E88" opacity="0.9"/><rect x="829" y="527" width="4" height="6" fill="#FF2E88" opacity="0.9"/><rect x="867" y="461" width="86" height="169" fill="#07030F"/><rect x="894" y="473" width="4" height="6" fill="#FF7A29" opacity="0.9"/><rect x="894" y="541" width="4" height="6" fill="#FF7A29" opacity="0.9"/><rect x="884" y="484" width="4" height="6" fill="#00E5C7" opacity="0.9"/><rect x="895" y="488" width="4" height="6" fill="#FF7A29" opacity="0.9"/><rect x="905" y="573" width="4" height="6" fill="#FF7A29" opacity="0.9"/><rect x="965" y="490" width="81" height="140" fill="#07030F"/><rect x="1020" y="602" width="4" height="6" fill="#FF7A29" opacity="0.9"/><rect x="994" y="607" width="4" height="6" fill="#FF7A29" opacity="0.9"/><rect x="1005" y="520" width="4" height="6" fill="#00E5C7" opacity="0.9"/><rect x="1023" y="519" width="4" height="6" fill="#FF2E88" opacity="0.9"/><rect x="1040" y="515" width="85" height="115" fill="#07030F"/><rect x="1079" y="579" width="4" height="6" fill="#00E5C7" opacity="0.9"/><rect x="1073" y="541" width="4" height="6" fill="#FF7A29" opacity="0.9"/><rect x="1087" y="549" width="4" height="6" fill="#FF2E88" opacity="0.9"/><rect x="1139" y="449" width="63" height="181" fill="#07030F"/><rect x="1170" y="541" width="4" height="6" fill="#00E5C7" opacity="0.9"/><rect x="1175" y="584" width="4" height="6" fill="#00E5C7" opacity="0.9"/><rect x="1172" y="609" width="4" height="6" fill="#FF2E88" opacity="0.9"/><rect x="1178" y="572" width="4" height="6" fill="#FF2E88" opacity="0.9"/><rect x="1199" y="444" width="122" height="186" fill="#07030F"/><rect x="1213" y="598" width="4" height="6" fill="#00E5C7" opacity="0.9"/><rect x="1212" y="552" width="4" height="6" fill="#FF7A29" opacity="0.9"/><rect x="1232" y="528" width="4" height="6" fill="#FF7A29" opacity="0.9"/><rect x="1291" y="572" width="4" height="6" fill="#00E5C7" opacity="0.9"/><rect x="1258" y="493" width="4" height="6" fill="#00E5C7" opacity="0.9"/><rect x="1268" y="553" width="4" height="6" fill="#00E5C7" opacity="0.9"/><rect x="1249" y="549" width="4" height="6" fill="#FF2E88" opacity="0.9"/><rect x="1226" y="553" width="4" height="6" fill="#FF2E88" opacity="0.9"/></g><g transform="translate(52 630) scale(0.62)" fill="#07030F"><path d="M-8 0 C-4 -60 -14 -120 -6 -180 C-3 -198 6 -198 8 -182 C14 -124 6 -60 10 0 Z"/><path d="M2 -188 Q-50 -226 -87 -217 Q-50 -208 2 -176 Z"/><path d="M2 -188 Q-32 -250 -56 -260 Q-32 -232 2 -176 Z"/><path d="M2 -188 Q-3 -262 -6 -280 Q-3 -244 2 -176 Z"/><path d="M2 -188 Q30 -255 50 -267 Q30 -237 2 -176 Z"/><path d="M2 -188 Q51 -233 86 -230 Q51 -215 2 -176 Z"/><path d="M2 -188 Q57 -202 97 -177 Q57 -184 2 -176 Z"/><path d="M2 -188 Q45 -173 77 -127 Q45 -155 2 -176 Z"/></g><g transform="translate(1148 630) scale(-0.72 0.72)" fill="#07030F"><path d="M-8 0 C-4 -60 -14 -120 -6 -180 C-3 -198 6 -198 8 -182 C14 -124 6 -60 10 0 Z"/><path d="M2 -188 Q-50 -226 -87 -217 Q-50 -208 2 -176 Z"/><path d="M2 -188 Q-32 -250 -56 -260 Q-32 -232 2 -176 Z"/><path d="M2 -188 Q-3 -262 -6 -280 Q-3 -244 2 -176 Z"/><path d="M2 -188 Q30 -255 50 -267 Q30 -237 2 -176 Z"/><path d="M2 -188 Q51 -233 86 -230 Q51 -215 2 -176 Z"/><path d="M2 -188 Q57 -202 97 -177 Q57 -184 2 -176 Z"/><path d="M2 -188 Q45 -173 77 -127 Q45 -155 2 -176 Z"/></g><rect x="486" y="96" width="228" height="34" rx="17" fill="#07030F" fill-opacity="0.6" stroke="#00E5C7" stroke-width="1.5"/><text x="600" y="117" font-family="'Courier New', monospace" font-size="14" letter-spacing="3" fill="#00E5C7" text-anchor="middle">EDIÇÃO DE FÃ</text><text x="600" y="252" font-family="Anton, 'Arial Narrow', sans-serif" font-size="148" letter-spacing="6" fill="url(#titleGrad)" text-anchor="middle" filter="url(#glowT)">GTA VI MINI</text><text x="600" y="308" font-family="'Space Grotesk', Arial, sans-serif" font-size="30" fill="#FFF7F0" text-anchor="middle">mini-game de navegador · paródia não-oficial · grátis</text></svg>