<svg xmlns="http://www.w3.org/2000/svg" width="800" height="1200" viewBox="0 0 800 1200" fill="none"><defs>
  <filter id="rimGlow" x="-40%" y="-40%" width="180%" height="180%"><feGaussianBlur stdDeviation="6" result="b"/><feMerge><feMergeNode in="b"/><feMergeNode in="SourceGraphic"/></feMerge></filter>
</defs><g transform="translate(-7 -9)" stroke="#FF2E88" stroke-width="7" fill="none" opacity="0.55" filter="url(#rimGlow)" stroke-linecap="round"><path d="M415 330 Q251 286 116 414"/><path d="M415 330 Q241 219 98 302"/><path d="M415 330 Q273 143 157 179"/><path d="M415 330 Q339 91 276 99"/><path d="M415 330 Q423 75 429 75"/><path d="M415 330 Q503 102 576 114"/><path d="M415 330 Q559 161 678 206"/><path d="M415 330 Q578 234 712 325"/><path d="M415 330 Q558 295 675 421"/><path d="M415 330 Q522 327 609 468"/><path d="M392 1180 C400 940 350 700 401 370" stroke-width="10"/></g><g fill="#07030F"><path d="M352 1200 C368 960 330 760 356 560 C370 460 388 400 399 360 L441 374 C423 450 420 460 428 560 C444 760 440 960 456 1200 Z"/><path d="M396 1180 C404 950 372 760 392 580 C402 480 408 420 413 390 L427 396 C413 480 416 480 408 580 C394 760 418 950 412 1180 Z" opacity="0.55" fill="#150A26"/><path d="M417 310 Q252 270 116 414 Q249 335 413 350 Z"/><path d="M423 312 Q247 204 98 302 Q231 265 407 348 Z"/><path d="M430 317 Q285 132 157 179 Q256 184 400 343 Z"/><path d="M434 323 Q354 85 276 99 Q317 125 396 337 Z"/><path d="M435 331 Q439 75 429 75 Q400 100 395 329 Z"/><path d="M433 338 Q518 108 576 114 Q482 118 397 322 Z"/><path d="M429 344 Q571 172 678 206 Q543 170 401 316 Z"/><path d="M422 349 Q584 249 712 325 Q570 239 408 311 Z"/><path d="M416 350 Q558 311 675 421 Q557 298 414 310 Z"/><path d="M410 349 Q518 342 609 468 Q527 330 420 311 Z"/></g><g fill="#07030F"><circle cx="389" cy="356" r="21"/><circle cx="419" cy="370" r="23"/><circle cx="445" cy="352" r="19"/><circle cx="411" cy="338" r="18"/></g><g fill="none" stroke="#FF2E88" stroke-width="4" opacity="0.5" stroke-linecap="round"><path d="M375 346 A22 22 0 0 1 401 338"/><path d="M431 340 A22 22 0 0 1 457 348"/></g></svg>